<svg width="45" height="37" viewBox="0 0 45 37" fill="none" xmlns="http://www.w3.org/2000/svg">
<path d="M3.6875 13.676L7.3425 33.2151C7.4469 33.7744 7.77084 34.2825 8.25662 34.6489C8.74239 35.0153 9.35845 35.2163 9.99506 35.216H35.0049C35.6411 35.2157 36.2565 35.0145 36.7417 34.6481C37.2269 34.2817 37.5505 33.774 37.6548 33.2151L41.3125 13.676M3.6875 13.676H11.75M3.6875 13.676H1M41.3125 13.676H33.25M41.3125 13.676H44M11.75 13.676L14.4375 1.70938M11.75 13.676H33.25M33.25 13.676L30.5625 1.70938M14.4375 23.2493V25.6426M30.5625 23.2493V25.6426M22.5 23.2493V25.6426" stroke="#9F3528" stroke-width="2" stroke-linecap="round" stroke-linejoin="round"/>
</svg>
